# xmcd CD database file
#
# Track frame offsets:
#	182
#	15145
#	35940
#	57627
#	72930
#	97135
#	110407
#	124575
#	146402
#	168707
#	183722
#	195992
#	211695
#	228182
#	272280
#	290127
#	310297
#
# Disc length: 4374 seconds
#
# Revision: 2
# Processed by: cddbd v1.5.2PL0 Copyright (c) Steve Scherf et al.
# Submitted via: CDex 1.50beta8
#
DISCID=f9111411
DTITLE=Jacques Loussier - Toccata - Play Bach [CD2 of 2)
DYEAR=2000
DGENRE=Jazz
TTITLE0=Prelude From Partita In E Major
TTITLE1=Chorale - "Jesu, Joy of Man's Desiring" (From Cantata No. 147)
TTITLE2=Concerto In F Minor - Allegro
TTITLE3=Concerto In F Minor - Largo
TTITLE4=Concerto In F Minor - Presto
TTITLE5=Little Fugue In G Minor
TTITLE6=Gavotte From Orchestral Suite No. 3 In D Major
TTITLE7=Pastorale In C Minor
TTITLE8=Vivace From Concerto No. 3 In C Minor
TTITLE9=Passacaglia In C Minor
TTITLE10=Two Part Invention No. 8 In F Major
TTITLE11=Fantasy In C Minor
TTITLE12=Siciliano In G Minor (From Sonata No. 2 In E Flat Major)
TTITLE13=ConcertIno In D Minor - Allegro Risoluto
TTITLE14=ConcertIno In D Minor - Adagio
TTITLE15=ConcertIno In D Minor - Allegro Moderato
TTITLE16=Minuet In G (From The Anna Magdalena Notebook)
EXTD=YEAR: 2000
EXTT0=
EXTT1=
EXTT2=
EXTT3=
EXTT4=
EXTT5=
EXTT6=
EXTT7=
EXTT8=
EXTT9=
EXTT10=
EXTT11=
EXTT12=
EXTT13=
EXTT14=
EXTT15=
EXTT16=
PLAYORDER=
